<svg width="110" height="110" viewBox="0 0 110 110" fill="none" xmlns="http://www.w3.org/2000/svg">
<rect width="110" height="110" rx="55" fill="#05C48A"/>
<path fill-rule="evenodd" clip-rule="evenodd" d="M46.4882 76.4469C45.896 76.7989 45.2025 77 44.4647 77C42.2765 77 40.5 75.2369 40.5 73.0651V36.9349C40.5 34.7631 42.2765 33 44.4647 33C45.231 33 45.9498 33.2169 46.5578 33.594L76.391 51.4831C77.6482 52.162 78.5 53.482 78.5 55C78.5 56.3891 77.7875 57.6117 76.7013 58.3283C76.6032 58.3974 76.4987 58.4571 76.391 58.5169L46.5293 76.4249C46.5167 76.4311 46.5008 76.4406 46.4882 76.4469Z" fill="#000055"/>
</svg>
